<svg width="156" height="142" viewBox="0 0 156 142" fill="none" xmlns="http://www.w3.org/2000/svg">
<path d="M97.4504 0H57.561C56.2277 0 55.1588 1.10717 55.1301 2.48345C54.3244 41.1613 34.726 77.8712 0.991168 103.873C-0.0793517 104.698 -0.323532 106.249 0.459348 107.366L23.7984 140.685C24.5925 141.819 26.1396 142.075 27.2281 141.241C48.3212 125.091 65.2875 105.605 77.5057 84.0084C89.724 105.605 106.69 125.091 127.783 141.241C128.872 142.075 130.419 141.819 131.213 140.685L154.552 107.366C155.335 106.249 155.091 104.698 154.02 103.873C120.285 77.8712 100.687 41.1613 99.8813 2.48345C99.8526 1.10717 98.7837 0 97.4504 0Z" fill="#FF875B"/>
</svg>
