<svg width="206" height="57" viewBox="0 0 206 57" fill="none" xmlns="http://www.w3.org/2000/svg">
<path d="M131.249 7.15137C130.167 6.52271 129.161 6.32975 127.896 6.57873C127.235 6.70321 126.625 6.97709 126.04 7.3132C125.486 7.63064 124.612 8.30909 123.92 9.16182L122.441 11.11C121.957 11.7511 121.365 12.5167 120.78 13.0956C120 13.8674 119.308 14.2969 118.452 14.5334C117.339 14.8384 116.017 14.8073 115.338 14.5334C115.338 14.5334 115.69 15.0314 115.917 15.3239C116.282 15.8156 116.665 16.158 117.1 16.4754C117.433 16.7182 117.773 16.9609 118.301 17.1227C118.968 17.3281 119.61 17.4215 120.283 17.3344C120.95 17.2472 121.63 17.0356 122.246 16.7244C122.787 16.463 123.303 16.1206 123.832 15.6974C124.656 15.0189 125.392 14.216 126.103 13.2263C126.386 12.8217 126.669 12.3985 126.952 11.9192L127.261 11.3964C127.361 11.2345 127.456 11.0789 127.556 10.9295C128.009 10.2573 128.412 9.80915 128.846 9.47927C129.387 9.05601 130.092 8.80704 130.922 8.75102C131.652 8.695 132.023 8.70745 133.049 8.85683C132.514 8.0041 131.772 7.46881 131.237 7.15759L131.249 7.15137Z" fill="white"/>
<path d="M124.44 0.404297C117.619 0.404297 112.064 5.90038 112.064 12.6476C112.064 19.3947 117.619 24.8846 124.44 24.8846C131.26 24.8846 136.815 19.3885 136.815 12.6413C136.815 5.89416 131.26 0.404297 124.44 0.404297ZM116.594 7.86104L117.84 7.48758C118.091 7.41289 118.293 7.21994 118.374 6.97096L118.777 5.751C118.834 5.58294 119.073 5.58294 119.123 5.751L119.501 6.98341C119.576 7.23239 119.771 7.43156 120.023 7.51248L121.262 7.91084C121.432 7.96686 121.432 8.20338 121.262 8.25318L120.017 8.62664C119.765 8.70133 119.564 8.89428 119.482 9.14326L119.079 10.3632C119.029 10.5313 118.783 10.5313 118.733 10.3632L118.356 9.13081C118.28 8.88183 118.085 8.68266 117.833 8.60174L116.6 8.20338C116.43 8.15359 116.43 7.91084 116.6 7.86104H116.594ZM130.649 19.4072C129.794 19.4072 129.095 18.7163 129.095 17.8698C129.095 17.0233 129.794 16.3324 130.649 16.3324C131.505 16.3324 132.203 17.0233 132.203 17.8698C132.203 18.7163 131.505 19.4072 130.649 19.4072ZM133.16 9.58518C132.952 9.71589 132.763 9.85283 132.587 9.99599C132.235 10.2885 131.939 10.5873 131.656 10.911C131.096 11.5396 130.618 12.2181 130.127 12.8965C129.882 13.2202 129.649 13.5937 129.397 13.9235L129.032 14.4526C128.907 14.6393 128.806 14.77 128.624 15.0066C127.969 15.8655 127.195 16.6809 126.233 17.4029C125.276 18.1125 124.087 18.7349 122.741 18.9901C121.394 19.2578 119.954 19.0773 118.809 18.5856C117.645 18.1001 116.745 17.3656 116.015 16.5564C115.449 15.9091 114.99 15.1995 114.644 14.4339C114.574 14.297 114.505 14.1538 114.442 13.9982L114.367 13.8177L114.562 13.8551C114.732 13.8862 115.071 13.9609 115.071 13.9609C115.87 14.1352 116.688 14.3157 118.117 13.9422C118.941 13.7244 119.702 13.2638 120.451 12.5231C121.03 11.9504 121.514 11.2969 121.986 10.6682L123.005 9.32376L123.54 8.64531C123.754 8.40878 123.961 8.17848 124.182 7.95441C124.666 7.48136 125.207 7.083 125.767 6.75934C126.377 6.41077 127.057 6.15558 127.743 6.02487C129.058 5.76967 130.511 6.02487 131.618 6.70954C132.6 7.31953 133.336 8.13491 133.764 9.07479L133.846 9.26774V9.27397C133.569 9.35488 133.349 9.4607 133.135 9.59763L133.16 9.58518Z" fill="white"/>
<path d="M70.7332 48.7116V43.1034H83.7128V45.8484C84.2036 45.7363 84.688 45.6181 85.1788 45.506C86.8587 45.1077 88.5385 44.7093 90.1995 44.3047V43.1034L89.3879 40.6946L90.1995 38.2858V32.6652L88.5763 31.8623H64.2402V49.5207H66.7443C68.0655 49.2531 69.3931 48.9854 70.7332 48.7053V48.7116ZM70.7332 36.6862H83.7128V38.292H70.7332V36.6862Z" fill="white"/>
<path d="M92.7251 45.0265V49.5267H99.2181V43.3708C97.0789 43.931 94.9146 44.4788 92.7251 45.0203V45.0265Z" fill="white"/>
<path d="M99.2142 42.0325V31.8682H92.7212V43.6882C94.9044 43.1466 97.0687 42.5927 99.2142 42.0325Z" fill="white"/>
<path d="M108.224 39.5929V36.6799H118.178C121.462 35.6778 124.639 34.6695 127.697 33.6549V32.6652L126.074 31.8623H101.738V41.3606C103.934 40.7755 106.098 40.1842 108.231 39.5867L108.224 39.5929Z" fill="white"/>
<path d="M121.193 37.1093V49.5206H127.686V35.0242C125.579 35.7213 123.414 36.4184 121.193 37.1093Z" fill="white"/>
<path d="M101.728 42.7112V49.5206H108.221V40.9373C106.088 41.5348 103.924 42.1261 101.728 42.705V42.7112Z" fill="white"/>
<path d="M130.209 34.1836V48.7236L131.832 49.5266H154.551L156.174 48.7236V38.2917H139.948V43.1093H149.682V44.7152H136.702V36.6858H149.682L151.305 37.4887H156.174V31.8682H136.796C134.682 32.64 132.48 33.4118 130.209 34.1836Z" fill="white"/>
<path d="M165.017 13.7488C164.262 10.6055 157.341 9.35443 144.431 10.0329C142.594 10.1262 140.649 10.2632 138.617 10.4375C138.686 10.8607 138.73 11.2902 138.756 11.7259C140.763 11.5578 142.682 11.4209 144.5 11.3213C161.525 10.425 163.532 13.1762 163.74 14.0351C164.52 17.2718 153.113 23.0293 142.185 27.3303C127.299 33.1998 107.077 39.2561 85.2453 44.3849C63.4134 49.5138 42.6006 53.099 26.6388 54.4746C14.9174 55.4892 2.12026 55.4145 1.3401 52.184C1.17651 51.4994 1.4911 49.5138 7.9526 45.7854L7.29198 44.665C1.91893 47.7834 -0.446727 50.3354 0.0691866 52.5015C0.692058 55.097 5.46741 56.4104 14.2883 56.4041C17.8053 56.4041 21.9578 56.1987 26.7457 55.7879C42.7705 54.4061 63.6587 50.8085 85.5473 45.6672C107.436 40.5259 127.72 34.4509 142.669 28.5565C158.367 22.3695 165.885 17.3838 165.011 13.755L165.017 13.7488Z" fill="white"/>
<path d="M110.14 13.7999C108.183 14.217 99.1355 16.3457 97.9526 16.5822L98.2106 17.852C99.3557 17.6217 108.334 15.5054 110.303 15.0884C110.228 14.6651 110.171 14.2356 110.14 13.7937V13.7999Z" fill="white"/>
<path d="M33.2527 26.6524L31.6295 27.4553H7.29346V9.79688H31.6295L33.2527 10.5998V26.6524ZM26.7661 22.6377V14.6083H13.7864V22.6377H26.7661Z" fill="white"/>
<path d="M61.7322 27.4553H37.3962L35.7729 26.6524V10.5998L37.3962 9.79688H61.7322V15.4174H56.8625L55.2393 14.6145H42.2596V16.2204H51.9928V21.038H42.2596V22.6439H55.2393L56.8625 21.841H61.7322V27.4615V27.4553Z" fill="white"/>
<path d="M90.2058 15.4112H85.3361L83.7128 14.6083H70.7332V16.2142H80.4664V21.0318H70.7332V27.4553H64.2402V10.5998L65.8635 9.79688H90.1995V15.4174L90.2058 15.4112Z" fill="white"/>
<path d="M99.2142 27.4553H92.7212V9.79688H99.2142V27.4553Z" fill="white"/>
<path d="M33.2527 48.724L31.6295 49.5207H7.29346V43.9002H12.1632L13.7864 44.7031H26.7661V43.0972H8.92299L7.29975 42.2943V32.6652L8.92299 31.8623H33.259V37.4829H28.3893L26.7661 36.6799H13.7864V38.2858H31.6358L33.259 39.0887V48.7178L33.2527 48.724Z" fill="white"/>
<path d="M61.7336 42.3001L60.1104 43.1031H42.261V49.5266H35.7681V31.8682H60.1041L61.7273 32.6711V42.3001H61.7336ZM55.247 38.2854V36.6796H42.2673V38.2854H55.247Z" fill="white"/>
<path d="M204.22 49.4043H166.785L165 47.9298V32.8788L166.785 31.4043H204.22L206 32.8788V47.9298L204.22 49.4043Z" fill="white"/>
<path d="M181.994 37.899V38.7158C181.994 38.7158 182 38.765 182 38.7895V38.9308C182 38.9308 181.994 38.9738 181.994 38.9922C181.994 39.0168 181.994 39.0413 181.987 39.0659C181.981 39.1519 181.968 39.2379 181.949 39.3239C181.949 39.3423 181.943 39.3607 181.936 39.373C181.879 39.6371 181.783 39.8889 181.649 40.1039C181.643 40.1162 181.636 40.1284 181.63 40.1407C181.585 40.2083 181.541 40.2697 181.496 40.3311C181.483 40.3496 181.471 40.368 181.458 40.3803C181.235 40.6444 180.941 40.8532 180.59 41.019C180.571 41.0252 180.552 41.0374 180.526 41.0436C180.444 41.0804 180.354 41.1173 180.265 41.148C180.246 41.148 180.233 41.1603 180.214 41.1664C179.92 41.2647 179.582 41.3384 179.212 41.3814C179.193 41.3814 179.181 41.3814 179.161 41.3814C179.047 41.3937 178.925 41.3998 178.798 41.4121C178.766 41.4121 178.74 41.4121 178.709 41.4121C178.581 41.4121 178.453 41.4182 178.319 41.4182H173.312C172.955 41.4182 172.572 41.4612 172.266 41.6516C172.036 41.7929 171.858 42.0201 171.819 42.272C171.819 42.3027 171.813 42.3272 171.813 42.3579V43.3284H181.592V45.4043H169V41.8543H169.006V41.7929C169.006 41.7929 169.006 41.7438 169.013 41.7192C169.019 41.6332 169.032 41.5472 169.051 41.4612C169.051 41.4428 169.057 41.4305 169.064 41.4121C169.121 41.148 169.217 40.8962 169.351 40.6812C169.357 40.6689 169.364 40.6566 169.37 40.6444C169.415 40.5768 169.459 40.5154 169.504 40.454C169.517 40.4355 169.529 40.4233 169.542 40.4048C169.765 40.1407 170.059 39.9319 170.41 39.7661C170.429 39.7599 170.448 39.7477 170.467 39.7415C170.55 39.7047 170.639 39.6678 170.729 39.6371C170.748 39.6371 170.767 39.6248 170.78 39.6187C171.073 39.5204 171.411 39.4467 171.781 39.4098C171.8 39.4098 171.813 39.4098 171.832 39.4098C171.947 39.3976 172.068 39.3914 172.196 39.3791C172.228 39.3791 172.253 39.3791 172.285 39.3791C172.413 39.3791 172.54 39.373 172.674 39.373H177.879C177.93 39.373 177.981 39.3669 178.026 39.3607H178.045C178.473 39.3116 178.919 39.1826 179.098 38.765C179.206 38.5254 179.187 38.2368 179.047 38.0034C178.772 37.5366 178.115 37.469 177.618 37.4752H173.357C172.84 37.4752 172.451 37.5612 172.183 37.7454C172.17 37.7515 172.158 37.7638 172.145 37.7761C172.126 37.7945 172.1 37.8068 172.081 37.8253C172.062 37.8437 172.043 37.856 172.03 37.8744C172.017 37.8867 172.004 37.899 171.992 37.9174C171.973 37.9358 171.953 37.9665 171.941 37.9849C171.934 37.9911 171.928 38.0034 171.921 38.0218C171.902 38.0525 171.89 38.0771 171.877 38.1078C171.877 38.1139 171.87 38.1262 171.864 38.1323C171.851 38.1692 171.839 38.1999 171.826 38.2368C171.826 38.2429 171.826 38.249 171.826 38.2552C171.813 38.292 171.807 38.3289 171.8 38.3719V38.3842C171.794 38.4272 171.788 38.4701 171.788 38.5131V38.8018H169.006V37.9235C169.006 37.9235 169.006 37.9174 169.006 37.9112C169.013 37.8007 169.026 37.6963 169.045 37.598C169.045 37.5857 169.045 37.5734 169.045 37.5612C169.064 37.4629 169.083 37.3708 169.108 37.2786C169.108 37.2602 169.115 37.2479 169.121 37.2295C169.147 37.1435 169.179 37.0637 169.21 36.9838C169.217 36.9654 169.23 36.9408 169.242 36.9224C169.281 36.8487 169.313 36.7811 169.351 36.7136C169.37 36.689 169.389 36.6644 169.402 36.6399C169.44 36.5846 169.478 36.5232 169.523 36.474C169.549 36.4372 169.587 36.4126 169.612 36.3758C169.651 36.3328 169.689 36.2898 169.734 36.2529C169.785 36.2099 169.836 36.167 169.887 36.124C169.919 36.1055 169.944 36.0748 169.976 36.0564C170.614 35.608 171.564 35.3869 172.802 35.4054H178.173C179.417 35.3869 180.361 35.608 180.999 36.0564C181.03 36.0748 181.056 36.1055 181.088 36.124C181.139 36.167 181.196 36.2038 181.241 36.2529C181.286 36.2898 181.317 36.3328 181.362 36.3758C181.394 36.4126 181.426 36.4372 181.451 36.474C181.496 36.5293 181.534 36.5846 181.573 36.6399C181.592 36.6644 181.604 36.689 181.624 36.7136C181.662 36.7811 181.7 36.8487 181.732 36.9224C181.738 36.9408 181.751 36.9593 181.764 36.9838C181.802 37.0637 181.828 37.1435 181.853 37.2295C181.853 37.2479 181.86 37.2602 181.866 37.2786C181.892 37.3646 181.917 37.4629 181.93 37.5612C181.93 37.5734 181.93 37.5796 181.93 37.598C181.949 37.6963 181.955 37.8007 181.962 37.9051V37.8867L181.994 37.899Z" fill="black"/>
<path d="M183.51 45.4366V43.3616H186.33V45.4366H183.51Z" fill="black"/>
<path d="M201.998 38.9584V41.5622C202.004 41.697 201.998 41.8318 201.985 41.9604C201.985 41.9972 201.985 42.0278 201.979 42.0646C201.966 42.1932 201.947 42.3158 201.928 42.4322C201.928 42.4567 201.915 42.4812 201.909 42.5057C201.827 42.8855 201.694 43.2286 201.504 43.5349C201.498 43.5533 201.486 43.5717 201.473 43.5901C201.416 43.682 201.353 43.7739 201.283 43.8596C201.264 43.878 201.245 43.9086 201.226 43.927C200.91 44.3007 200.506 44.6009 200.006 44.8338C199.981 44.846 199.949 44.8583 199.924 44.8705C199.804 44.9195 199.684 44.9747 199.558 45.0114C199.532 45.0175 199.507 45.0298 199.482 45.0359C199.065 45.1768 198.603 45.2749 198.078 45.3361C198.059 45.3361 198.034 45.3361 198.009 45.3423C197.845 45.3606 197.68 45.3729 197.503 45.3851C197.465 45.3851 197.421 45.3851 197.383 45.3913C197.206 45.3974 197.023 45.4035 196.839 45.4035H193.338C191.599 45.4219 190.272 45.1156 189.374 44.4784C189.33 44.4478 189.292 44.411 189.248 44.3804C189.172 44.3191 189.102 44.264 189.027 44.2027C188.963 44.1476 188.913 44.0863 188.862 44.0312C188.818 43.9822 188.774 43.9454 188.736 43.8903C188.673 43.8168 188.616 43.731 188.565 43.6513C188.54 43.6146 188.514 43.5778 188.489 43.5411C188.432 43.4492 188.382 43.3511 188.331 43.247C188.319 43.2164 188.306 43.1918 188.293 43.1612C188.243 43.0509 188.205 42.9345 188.167 42.812C188.16 42.7936 188.154 42.7691 188.148 42.7446C188.11 42.616 188.078 42.4812 188.059 42.3464C188.059 42.328 188.059 42.3096 188.053 42.2974C188.028 42.1565 188.015 42.0033 188.002 41.8501V39.2464C187.996 39.1116 188.002 38.9768 188.015 38.8482C188.015 38.8114 188.015 38.7808 188.021 38.744C188.034 38.6154 188.053 38.4928 188.072 38.3764C188.072 38.3519 188.085 38.3274 188.091 38.3029C188.173 37.9231 188.306 37.58 188.496 37.2737C188.502 37.2553 188.514 37.2369 188.527 37.2185C188.584 37.1266 188.647 37.0347 188.717 36.949C188.736 36.9306 188.755 36.8999 188.774 36.8816C189.09 36.5078 189.494 36.2076 189.994 35.9748C190.019 35.9626 190.051 35.9503 190.076 35.9381C190.196 35.8891 190.316 35.8339 190.442 35.7972C190.468 35.791 190.493 35.7788 190.518 35.7727C190.935 35.6318 191.397 35.5337 191.922 35.4725C191.941 35.4725 191.966 35.4725 191.991 35.4663C192.155 35.448 192.32 35.4357 192.497 35.4235C192.535 35.4235 192.579 35.4235 192.617 35.4173C192.794 35.4112 192.977 35.4051 193.161 35.4051H196.662C198.401 35.3867 199.728 35.693 200.626 36.3302C200.67 36.3608 200.708 36.3976 200.752 36.4282C200.828 36.4895 200.898 36.5446 200.973 36.6059C201.037 36.661 201.087 36.7223 201.138 36.7774C201.182 36.8264 201.226 36.8632 201.264 36.9183C201.327 36.9918 201.384 37.0776 201.435 37.1573C201.46 37.194 201.486 37.2308 201.511 37.2675C201.568 37.3594 201.618 37.4636 201.669 37.5616C201.681 37.5922 201.694 37.6167 201.707 37.6474C201.757 37.7577 201.795 37.8741 201.833 37.9966C201.84 38.015 201.846 38.0395 201.852 38.064C201.89 38.1926 201.922 38.3274 201.941 38.4622C201.941 38.4806 201.941 38.499 201.947 38.5112C201.972 38.6521 201.985 38.8053 201.998 38.9584ZM199.21 41.3233C199.21 41.2498 199.223 41.1701 199.223 41.0905V39.5772C199.223 39.5772 199.223 39.5772 199.223 39.565C199.223 39.4792 199.21 39.3873 199.191 39.3015C199.191 39.2893 199.191 39.2831 199.191 39.2709C199.178 39.1912 199.159 39.1116 199.14 39.0381C199.14 39.0258 199.128 39.0075 199.128 39.0013C199.102 38.9339 199.077 38.8665 199.052 38.7992C199.039 38.7808 199.039 38.7685 199.027 38.7501C198.995 38.6889 198.97 38.6337 198.938 38.5786C198.925 38.5541 198.906 38.5357 198.894 38.5112C198.862 38.4622 198.831 38.4193 198.793 38.3703C198.767 38.3397 198.742 38.3152 198.723 38.2907C198.692 38.26 198.66 38.2233 198.628 38.1865C198.59 38.1497 198.546 38.1191 198.502 38.0824C198.477 38.064 198.451 38.0456 198.432 38.0272C197.908 37.6535 197.137 37.4758 196.119 37.4881H193.812C193.704 37.4881 193.597 37.4881 193.496 37.5003H193.426C193.325 37.5003 193.23 37.5126 193.135 37.5248C193.123 37.5248 193.11 37.5248 193.097 37.5248C192.794 37.5616 192.522 37.6167 192.282 37.7025C192.269 37.7025 192.25 37.7148 192.238 37.7148C192.168 37.7393 192.092 37.7699 192.029 37.8005C192.016 37.8128 191.997 37.8128 191.978 37.825C191.688 37.9598 191.448 38.1375 191.271 38.358C191.258 38.3703 191.245 38.3887 191.239 38.3948C191.201 38.4438 191.163 38.499 191.131 38.5541C191.131 38.5663 191.119 38.5786 191.112 38.5847C191.005 38.7624 190.923 38.9646 190.879 39.1851C190.879 39.1974 190.879 39.2158 190.866 39.228C190.853 39.2954 190.841 39.3689 190.834 39.4424C190.834 39.4608 190.834 39.4792 190.834 39.5037C190.834 39.5772 190.822 39.6569 190.822 39.7365V41.2498C190.822 41.2498 190.822 41.2498 190.822 41.2559C190.822 41.3416 190.834 41.4335 190.853 41.5193C190.853 41.5316 190.853 41.5377 190.853 41.55C190.866 41.6296 190.885 41.7092 190.904 41.7828C190.904 41.795 190.917 41.8134 190.917 41.8195C190.942 41.8869 190.967 41.9543 190.992 42.0217C191.005 42.0401 191.005 42.0523 191.018 42.0707C191.049 42.132 191.075 42.1871 191.106 42.2422C191.119 42.2667 191.138 42.2851 191.15 42.3096C191.182 42.3586 191.214 42.4015 191.252 42.4505C191.277 42.4812 191.302 42.5057 191.321 42.5302C191.353 42.5608 191.384 42.5976 191.416 42.6343C191.454 42.6711 191.498 42.7017 191.542 42.7385C191.568 42.7569 191.593 42.7752 191.612 42.7936C192.137 43.1673 192.908 43.345 193.925 43.3328H196.233C196.34 43.3328 196.448 43.3328 196.549 43.3205H196.618C196.719 43.3205 196.82 43.3083 196.909 43.296C196.922 43.296 196.934 43.296 196.947 43.296C197.25 43.2592 197.516 43.2041 197.762 43.1183C197.775 43.1183 197.794 43.1061 197.807 43.1061C197.876 43.0754 197.952 43.0509 198.015 43.0203C198.028 43.0142 198.047 43.0081 198.066 42.9958C198.357 42.861 198.597 42.6834 198.774 42.4628C198.786 42.4505 198.799 42.4322 198.805 42.426C198.843 42.377 198.881 42.3219 198.913 42.2667C198.913 42.2545 198.925 42.2422 198.932 42.2361C199.039 42.0585 199.121 41.8563 199.166 41.6357C199.166 41.6235 199.166 41.6051 199.178 41.5928C199.191 41.5254 199.204 41.4519 199.21 41.3784C199.21 41.36 199.21 41.3417 199.21 41.3171V41.3233Z" fill="black"/>
</svg>
